<svg xmlns="http://www.w3.org/2000/svg" viewBox="0 0 24 24" id="Technology-Robot-Strategy-Chess--Streamline-Ultimate">
  <desc>
    Technology Robot Strategy Chess Streamline Icon: https://streamlinehq.com
  </desc>
  <g>
    <path d="m11.38 22.8 -0.15 -0.94a1.18 1.18 0 0 0 -0.83 -0.74l-8.78 0a1.19 1.19 0 0 0 -0.84 0.8l-0.13 0.88a1 1 0 0 0 0.21 0.83 1 1 0 0 0 0.78 0.37h8.76a1 1 0 0 0 0.77 -0.37 1 1 0 0 0 0.21 -0.83Z" fill="#daa520" stroke-width="1"></path>
    <path d="M1.51 14h2.15a0.25 0.25 0 0 1 0.23 0.15 0.25 0.25 0 0 1 -0.05 0.27 2.6 2.6 0 0 0 -0.24 0.29A12.6 12.6 0 0 0 1.86 20h8.19a12.24 12.24 0 0 0 -2.23 -4.48 0.24 0.24 0 0 1 0 -0.32l1.93 -2.65a1.56 1.56 0 0 0 0.28 -0.83v-0.18c0 -1.13 0.09 -2.3 -2.29 -3.49 -1 -0.5 -3 -1.55 -3 -1.55a0.48 0.48 0 0 0 -0.49 0 0.5 0.5 0 0 0 -0.25 0.44v1.67a0.26 0.26 0 0 1 -0.11 0.21L0.73 11.08A1.52 1.52 0 0 0 0 12.64C0.31 14.1 1.43 14 1.51 14Z" fill="#daa520" stroke-width="1"></path>
    <path d="M23.5 2.18h-3.74a4.05 4.05 0 0 1 0.74 2.32 3.94 3.94 0 0 1 -0.34 1.61h3.34a0.5 0.5 0 0 0 0.5 -0.5V2.68a0.5 0.5 0 0 0 -0.5 -0.5Z" fill="#daa520" stroke-width="1"></path>
    <path d="M19.5 4.5a3 3 0 0 0 -2.81 -3c-1.36 -1.29 -4 -1.35 -5 -1.09A6.46 6.46 0 0 0 8 3.17a1.51 1.51 0 0 0 0 1.55 1.36 1.36 0 0 0 0.51 0.5 1.45 1.45 0 0 0 0.76 0.21 1.61 1.61 0 0 0 0.37 0 1.49 1.49 0 0 0 0.91 -0.68 3.6 3.6 0 0 1 1.73 -1.35 1.64 1.64 0 0 1 1 0.12l0.4 0.21a3.1 3.1 0 0 0 -0.11 0.81 3 3 0 0 0 2.13 2.87v0.07a1.61 1.61 0 0 1 -0.33 0.9 3.55 3.55 0 0 1 -2 0.93 1.49 1.49 0 0 0 -1.38 1.59 1.47 1.47 0 0 0 1.48 1.39h0.11a6.44 6.44 0 0 0 4.13 -2.06A6.77 6.77 0 0 0 19.1 6a3.08 3.08 0 0 0 0.4 -1.5Zm-3 1a1 1 0 1 1 1 -1 1 1 0 0 1 -1 1Z" fill="#daa520" stroke-width="1"></path>
  </g>
</svg>