<svg xmlns="http://www.w3.org/2000/svg" viewBox="0 0 24 24" id="Auto-Pilot-Car-Signal-1--Streamline-Ultimate">
  <desc>
    Auto Pilot Car Signal 1 Streamline Icon: https://streamlinehq.com
  </desc>
  <g>
    <path d="M4.94 8.3a1 1 0 0 0 0.69 0.27 1 1 0 0 0 0.69 -1.72 3.44 3.44 0 0 1 -1.08 -2.53A3.43 3.43 0 0 1 6.32 1.8a1 1 0 0 0 0 -1.42 1 1 0 0 0 -1.41 0 5.44 5.44 0 0 0 -1.7 4A5.44 5.44 0 0 0 4.94 8.3Z" fill="#daa520" stroke-width="1"></path>
    <path d="M7.77 6.5a1 1 0 0 0 0.49 0.13 1 1 0 0 0 0.49 -1.87 0.49 0.49 0 0 1 -0.25 -0.44 0.5 0.5 0 0 1 0.25 -0.43 1 1 0 1 0 -1 -1.74 2.5 2.5 0 0 0 0 4.35Z" fill="#daa520" stroke-width="1"></path>
    <path d="M20.76 4.32a3.44 3.44 0 0 1 -1.08 2.53 1 1 0 0 0 1.38 1.45 5.44 5.44 0 0 0 1.7 -4 5.44 5.44 0 0 0 -1.7 -4 1 1 0 0 0 -1.41 0 1 1 0 0 0 0 1.42 3.43 3.43 0 0 1 1.11 2.6Z" fill="#daa520" stroke-width="1"></path>
    <path d="M17.25 4.76a1 1 0 0 0 1 1.74 2.51 2.51 0 0 0 0 -4.35 1 1 0 0 0 -1.37 0.38 1 1 0 0 0 0.38 1.36 0.5 0.5 0 0 1 0.25 0.43 0.49 0.49 0 0 1 -0.26 0.44Z" fill="#daa520" stroke-width="1"></path>
    <path d="M24 19.91a11.31 11.31 0 0 0 -7.64 -9.77 0.26 0.26 0 0 1 -0.18 -0.24v-0.73a3.3 3.3 0 0 0 -6.6 0v0.74a0.25 0.25 0 0 1 -0.18 0.24C4.67 11.52 0.78 15.42 0 20a2.31 2.31 0 0 0 0.52 1.87 2.17 2.17 0 0 0 0.76 0.59 0.25 0.25 0 0 0 0.36 -0.25 3 3 0 0 1 0 -0.31 3.17 3.17 0 0 1 6.33 0 2.73 2.73 0 0 1 -0.05 0.5 0.29 0.29 0 0 0 0.05 0.2 0.25 0.25 0 0 0 0.2 0.09h7.65a0.25 0.25 0 0 0 0.19 -0.09 0.29 0.29 0 0 0 0.05 -0.2 2.74 2.74 0 0 1 0 -0.5 3.16 3.16 0 0 1 6.32 0 1.93 1.93 0 0 1 0 0.24 0.26 0.26 0 0 0 0.11 0.23 0.27 0.27 0 0 0 0.26 0A2.46 2.46 0 0 0 24 19.91ZM9.27 13.17 7.83 16a1.63 1.63 0 0 1 -1.47 1H4.52a0.5 0.5 0 0 1 -0.45 -0.27 0.52 0.52 0 0 1 0 -0.51A11.19 11.19 0 0 1 8.6 12.5a0.5 0.5 0 0 1 0.67 0.67Zm2.29 -4a1.3 1.3 0 0 1 2.6 0v0.24a0.27 0.27 0 0 1 -0.08 0.19 0.22 0.22 0 0 1 -0.19 0.06l-0.89 0a11.11 11.11 0 0 0 -1.16 0.07 0.26 0.26 0 0 1 -0.19 -0.07 0.21 0.21 0 0 1 -0.09 -0.18Zm5.87 7A1.67 1.67 0 0 1 16 17h-4.46a0.84 0.84 0 0 1 -0.72 -0.4 0.85 0.85 0 0 1 0 -0.82L12 13.41a1.63 1.63 0 0 1 1.47 -0.91h2a1.66 1.66 0 0 1 1.48 0.91l0.57 1.15a1.65 1.65 0 0 1 -0.09 1.61Z" fill="#daa520" stroke-width="1"></path>
    <path d="M4.81 19.9a2 2 0 1 0 2 2 2 2 0 0 0 -2 -2Z" fill="#daa520" stroke-width="1"></path>
    <path d="M19.19 19.9a2 2 0 1 0 2 2 2 2 0 0 0 -2 -2Z" fill="#daa520" stroke-width="1"></path>
  </g>
</svg>